#!OML:ASF F:\VICON\USERDATA\INSTALL\rory3\rory3.ASF
:FULLY-SPECIFIED
:DEGREES
9
root 0.5777800411822478 18.04899254716714 -20.452686096810424 -2.8738951257146144 -2.6081986542886546 -6.245669754340836
lfemur -26.153287867052722 2.52400096373835 -14.286707975301503
ltibia 62.41478305171459
lfoot -7.661597732366542 -1.2917994618813546
ltoes -4.2274290245817445
rfemur -6.580614080845791 7.0858005730768205 33.67098817356012
rtibia 29.72990379576462
rfoot -16.974590886321035 -8.053316740894761
rtoes 2.6115414548913645
lowerback 10.69968947339353 0.9160255923262139 5.2241308835838
upperback 0.3022899638551764 2.0228465337172734 2.8172880946961074
thorax -5.61776438576358 0.8920610985363678 -0.2946821128766389
lowerneck -15.507017460270742 -3.1419448344738297 -1.7760532112730978
upperneck 21.462195945150008 -4.053335194387617 0.5176861492920561
head 9.372043284303595 -1.9773628308263018 -0.0350450200480496
lclavicle -2.7971981668178528e-15 -4.1600762517603413e-16
lhumerus -33.77039400695602 -1.2597562911257503 85.25738788579824
lradius 27.34419566400367
lwrist 6.27299418487452
lhand -26.39700359177413 21.042707252179884
lfingers 7.1250199999999975
lthumb 0.16230340820540523 51.02230722319695
rclavicle -2.7971981668178528e-15 -4.1600762517603413e-16
rhumerus -26.319805047785884 -12.51510919029883 -80.3116958839683
rradius 26.921693482503482
rwrist 2.4297293989937616
rhand -19.143886549462323 21.762102701679765
rfingers 7.1250199999999975
rthumb 7.166223451510646 -8.096597029107999
10
root 0.5966295918378633 17.96899701881486 -19.634586460374365 -2.3271494448446424 -3.107587095317148 -7.048357773447233
lfemur -28.690386154118784 1.784803786657521 -13.231509498573057
ltibia 52.44528854612054
lfoot -8.443586817940211 3.040824506949039
ltoes 0.5702001604100251
rfemur -3.787795970841863 6.757851750524976 34.58428682219086
rtibia 29.218604086665902
rfoot -18.783388987875455 -7.486577801738052
rtoes 4.795378093780233
lowerback 10.83018782137596 1.2466066110543332 6.400638187446258
upperback 0.6175826971525094 2.589414343871531 2.7098891949634716
thorax -5.278692362274967 1.1518449262499617 -1.1468115926226732
lowerneck -17.10929530722518 -3.2146628986818206 -1.6494348018646185
upperneck 21.47229583135917 -4.121224016473542 0.3741227039184195
head 9.667675457968649 -2.004611597822542 -0.1420467807186949
lclavicle -2.7971981998375105e-15 -4.1600762228973303e-16
lhumerus -33.77519399938434 -0.8360350909325118 85.15008849538272
lradius 26.58939728104648
lwrist 5.372537139102021
lhand -27.027100410531244 23.670999688583706
lfingers 7.1250199999999975
lthumb -0.4462864102393552 53.650299663403764
rclavicle -2.7971981998375105e-15 -4.1600762228973303e-16
rhumerus -24.173510911650602 -9.95488345786943 -81.57379163511666
rradius 29.0669869239019
rwrist -0.0005718720208855999
rhand -19.514983413586087 22.40439997203535
rfingers 7.1250199999999975
rthumb 6.808076587619635 -7.466179716040044
11
root 0.6200710330298498 17.915999981281477 -18.785086837892365 -1.3886368588179663 -3.5472657227454283 -7.985235461396995
lfemur -29.66178549827396 0.1709639497484563 -11.48301202268255
ltibia 39.59389562880353
lfoot -10.08769489538688 6.987019013703239
ltoes -4.436498727599281
rfemur -0.4918112013481082 6.916541180775786 35.65448523866368
rtibia 26.946905379137036
rfoot -19.634788094279365 -7.8031572091528
rtoes 4.158619073806757
lowerback 10.142296529597292 1.4248855425748572 7.434535818119539
upperback 0.2986100603390628 2.911583098654522 2.846427796169193
thorax -5.167934967791072 1.2845538165514865 -1.6047397008641031
lowerneck -16.092009372190073 -3.0960560560565487 -1.7799631621559535
upperneck 20.980701369931147 -3.9029778031836133 0.25420400249950337
head 9.305015058756416 -1.9345947660766083 -0.11081863855312998
lclavicle -2.797198203795788e-15 -4.1600763908271664e-16
lhumerus -35.272991636708106 1.2010990638181276 84.53549198700082
lradius 25.850398864240216
lwrist 4.742019207710864
lhand -26.949400802822264 23.26960084371345
lfingers 7.1250199999999975
lthumb -0.37126480243354276 53.24900081779684
rclavicle -2.797198203795788e-15 -4.1600763908271664e-16
rhumerus -23.290413324351036 -7.672697261983499 -82.07698994109705
rradius 30.21178342402446
rwrist -1.1024818471711235
rhand -19.57078294206388 23.26989629383631
rfingers 7.1250199999999975
rthumb 6.754167059677815 -6.602353397795875
12
root 0.6557551823744463 17.82650498393736 -17.906787228209218 -0.5452295214878005 -5.169980657016756 -8.81624341061476
lfemur -28.345586386912057 -1.8992721442295213 -8.945245686170873
ltibia 24.689003843214614
lfoot -8.135397178324682 10.411184247141124
ltoes 0.97361058736753
rfemur 3.0997993680855522 7.355679604119038 36.358484196986296
rtibia 24.882606553609097
rfoot -20.63758704177978 -7.193308350690858
rtoes 1.2621035317916007
lowerback 9.910909458795336 2.1424112422266477 8.37545366186951
upperback 0.11456888573942287 3.9522090765227977 2.7277690117904667
thorax -5.0802670301384625 1.7702097555450593 -2.37797650652569
lowerneck -15.96671110456017 -3.1571644293204413 -1.5475460817996212
upperneck 20.908702181113373 -4.0681649370821855 0.33297014955306947
head 9.254766389000398 -1.9848224932773828 -0.14020683126195224
lclavicle -2.7971981049951853e-15 -4.160076455114001e-16
lhumerus -36.21249015471162 2.4900366308480937 83.73499653473966
lradius 24.984500719297674
lwrist 4.282680714712681
lhand -26.888101112313123 19.553611537440734
lfingers 7.1250199999999975
lthumb -0.31204811200357874 49.53311150707974
rclavicle -2.7971981049951853e-15 -4.160076455114001e-16
rhumerus -22.17511637144061 -6.6034590442675665 -82.72258776768876
rradius 30.895081335042757
rwrist -1.2666414403364419
rhand -20.635573944270796 21.802802528713038
rfingers 7.1250199999999975
rthumb 5.7261960610943134 -8.09979701546918
